<svg width="25" height="25" viewBox="0 0 25 25" fill="none" xmlns="http://www.w3.org/2000/svg">
<path d="M10.3597 3.82031C6.22897 3.82031 2.86426 7.18503 2.86426 11.3158C2.86426 15.4465 6.22897 18.8113 10.3597 18.8113C12.156 18.8113 13.8057 18.1734 15.0986 17.1145L19.5739 21.5899C19.643 21.6618 19.7257 21.7192 19.8172 21.7588C19.9088 21.7984 20.0073 21.8193 20.107 21.8203C20.2067 21.8213 20.3056 21.8024 20.398 21.7647C20.4903 21.727 20.5742 21.6713 20.6447 21.6008C20.7152 21.5302 20.771 21.4464 20.8086 21.354C20.8463 21.2617 20.8652 21.1628 20.8642 21.0631C20.8632 20.9633 20.8423 20.8648 20.8027 20.7733C20.7632 20.6817 20.7057 20.599 20.6338 20.5299L16.1585 16.0546C17.2173 14.7617 17.8552 13.1121 17.8552 11.3158C17.8552 7.18503 14.4905 3.82031 10.3597 3.82031ZM10.3597 5.31941C13.6803 5.31941 16.3561 7.9952 16.3561 11.3158C16.3561 14.6364 13.6803 17.3122 10.3597 17.3122C7.03914 17.3122 4.36335 14.6364 4.36335 11.3158C4.36335 7.9952 7.03914 5.31941 10.3597 5.31941Z" fill="#999999"/>
</svg>
