<svg width="320" height="71" viewBox="0 0 320 71" fill="none" xmlns="http://www.w3.org/2000/svg">
<g clip-path="url(#clip0_3_94)">
<path d="M96.348 21.0607V25.7108H106.593V31.017H96.348V39.0244H89.5184V15.7498H107.378V21.0559H96.348V21.0607Z" fill="#1E2331"/>
<path d="M135.198 33.2504V39.0302H118.72V15.7498H125.549V33.2504H135.198Z" fill="#1E2331"/>
<path d="M170.197 27.3672C170.197 34.2092 164.881 39.3301 157.654 39.3301C150.426 39.3301 145.111 34.2459 145.111 27.3672C145.111 20.4885 150.427 15.5403 157.655 15.5403C164.882 15.5403 170.197 20.5531 170.197 27.3672ZM152.101 27.3961C152.072 28.1748 152.195 28.9517 152.464 29.6821C152.732 30.4126 153.14 31.0823 153.665 31.653C154.189 32.2237 154.82 32.6841 155.521 33.0078C156.221 33.3316 156.978 33.5123 157.748 33.5397C160.766 33.5397 163.197 30.9175 163.197 27.3961C163.197 23.8748 160.766 21.3182 157.748 21.3182C156.982 21.3378 156.227 21.5111 155.527 21.828C154.827 22.1449 154.196 22.5991 153.671 23.1643C153.146 23.7295 152.737 24.3945 152.468 25.1207C152.198 25.847 152.074 26.62 152.102 27.3952L152.101 27.3961Z" fill="#1E2331"/>
<path d="M202.908 29.1983C202.908 35.3795 198.736 39.3282 192.171 39.3282C185.607 39.3282 181.274 35.3727 181.274 29.1983V15.74H188.104V29.1983C188.065 29.7629 188.142 30.3295 188.332 30.862C188.521 31.3945 188.818 31.8812 189.204 32.291C189.59 32.7007 190.056 33.0245 190.573 33.2417C191.09 33.4588 191.645 33.5646 192.205 33.5522C194.503 33.5522 196.084 31.9256 196.084 29.1983V15.74H202.913V29.1983H202.908Z" fill="#1E2331"/>
<path d="M225.734 32.7535H222.12V39.0302H215.291V15.7498H226.027C232.204 15.7498 235.741 18.7357 235.741 24.0167C235.741 27.4715 234.36 29.9982 231.864 31.4231L236.527 39.0302H228.78L225.728 32.7535H225.734ZM226.027 27.4474C226.459 27.4981 226.896 27.4498 227.307 27.3061C227.718 27.1625 228.092 26.9271 228.401 26.6174C228.71 26.3078 228.946 25.9318 229.092 25.5173C229.237 25.1029 229.289 24.6606 229.243 24.2232C229.243 22.1277 228.06 21.0655 226.027 21.0655H222.116V27.4329H226.027V27.4474Z" fill="#1E2331"/>
<path d="M247.963 39.0302V15.7498H254.792V39.0302H247.963Z" fill="#1E2331"/>
<path d="M286.615 18.1326L284.089 23.4388C281.724 22.0804 278.375 20.8455 276.436 20.8455C275.292 20.8455 274.535 21.2478 274.535 22.1084C274.535 25.5246 286.552 23.5053 286.552 31.9064C286.552 36.8536 282.219 39.2173 277.064 39.2173C273.084 39.2032 269.211 37.9133 266.001 35.5329L268.564 30.2895C270.93 32.3154 274.769 33.8398 277.135 33.8398C278.582 33.8398 279.5 33.3419 279.5 32.2798C279.5 28.7584 267.483 30.9879 267.483 22.7779C267.483 18.2899 271.257 15.439 277.009 15.439C280.398 15.4299 283.725 16.3598 286.629 18.1278L286.615 18.1326Z" fill="#1E2331"/>
<path d="M312.92 39.0302V30.3609H304.748V39.0302H297.918V15.7498H304.748V25.0114H312.92V15.7498H319.75V39.0302H312.92Z" fill="#1E2331"/>
<path d="M93.9828 55.0583H91.732V57.8908H89.5184V47.9771H93.7749C96.3385 47.9771 97.7949 49.2206 97.7949 51.4222C97.844 52.0814 97.695 52.7402 97.3676 53.3122C97.0401 53.8843 96.5495 54.3429 95.9599 54.6281L98.0505 57.9005H95.5441L93.9923 55.068L93.9828 55.0583ZM93.7749 53.1925C94.9947 53.1925 95.6947 52.6281 95.6947 51.4897C95.6947 50.3513 94.9947 49.8342 93.7749 49.8342H91.732V53.1925H93.7749Z" fill="#1E2331"/>
<path d="M105.657 49.8237V51.977H110.386V53.8332H105.657V56.0242H111.063V57.8804H103.452V47.9675H110.916V49.8237H105.671H105.657Z" fill="#1E2331"/>
<path d="M123.884 48.9438L123.032 50.8C122.109 50.22 121.063 49.8692 119.98 49.7764C119.242 49.7764 118.732 50.0446 118.732 50.5801C118.732 52.4073 123.954 51.3837 123.944 54.9629C123.944 56.905 122.279 57.9488 120.104 57.9488C118.524 57.9417 116.995 57.3877 115.771 56.3792L116.65 54.5519C117.612 55.4232 118.834 55.945 120.122 56.0348C121.03 56.0348 121.578 55.6904 121.578 55.0874C121.578 53.2216 116.356 54.3156 116.356 50.7913C116.356 48.9921 117.882 47.8633 120.149 47.8633C121.468 47.859 122.761 48.2341 123.876 48.9448L123.884 48.9438Z" fill="#1E2331"/>
<path d="M131.489 49.8237V51.977H136.219V53.8332H131.489V56.0242H136.9V57.8804H129.285V47.9675H136.749V49.8237H131.504H131.489Z" fill="#1E2331"/>
<path d="M144.346 55.9576L143.583 57.8813H141.303L145.56 47.9685H147.839L152.03 57.8813H149.664L148.901 55.9576H144.36H144.346ZM146.625 50.3022L145.073 54.1613H148.166L146.625 50.3022Z" fill="#1E2331"/>
<path d="M161.287 55.0583H159.035V57.8908H156.822V47.9771H161.076C163.639 47.9771 165.096 49.2206 165.096 51.4222C165.145 52.0814 164.996 52.7402 164.668 53.3122C164.341 53.8843 163.85 54.3429 163.261 54.6281L165.351 57.9005H162.845L161.293 55.068L161.287 55.0583ZM161.079 53.1925C162.298 53.1925 162.999 52.6281 162.999 51.4897C162.999 50.3513 162.298 49.8342 161.079 49.8342H159.036V53.1925H161.079Z" fill="#1E2331"/>
<path d="M179.127 49.5467L177.841 51.1347C177.526 50.7529 177.137 50.441 176.697 50.2187C176.257 49.9964 175.777 49.8684 175.286 49.8429C174.486 49.8429 173.719 50.1645 173.153 50.737C172.587 51.3094 172.269 52.0858 172.269 52.8954C172.269 53.705 172.587 54.4814 173.153 55.0538C173.719 55.6263 174.486 55.9479 175.286 55.9479C176.252 55.9032 177.165 55.4895 177.841 54.7902L179.146 56.2257C178.105 57.3181 176.682 57.9538 175.182 57.996C174.512 58.0162 173.844 57.8992 173.218 57.652C172.593 57.4049 172.024 57.0327 171.544 56.5577C171.065 56.0827 170.685 55.5147 170.427 54.8877C170.17 54.2607 170.04 53.5876 170.046 52.9087C170.051 52.2298 170.193 51.559 170.461 50.9365C170.729 50.3141 171.118 49.7527 171.605 49.286C172.093 48.8194 172.669 48.457 173.298 48.2207C173.927 47.9843 174.597 47.8788 175.267 47.9105C176.72 47.9293 178.108 48.5196 179.137 49.5564L179.127 49.5467Z" fill="#1E2331"/>
<path d="M190.886 57.8899V53.9768H186.449V57.8908H184.235V47.9771H186.449V52.111H190.886V47.9771H193.099V57.8899H190.886Z" fill="#1E2331"/>
<path d="M70.4389 0H0.25V71H70.4389V0Z" fill="#1E2331"/>
<path d="M42.9781 43.2027H27.7489V27.7975H42.9685V43.193L42.9781 43.2027ZM48.7958 27.8062V43.2027C50.8142 43.2027 52.7499 42.3916 54.1771 40.9479C55.6043 39.5042 56.4061 37.5461 56.4061 35.5044C56.4061 33.4627 55.6043 31.5046 54.1771 30.0609C52.7499 28.6172 50.8142 27.8062 48.7958 27.8062ZM27.7584 21.9212H42.9781C42.9781 20.9102 42.7812 19.9092 42.3988 18.9752C42.0163 18.0412 41.4557 17.1925 40.749 16.4777C40.0424 15.7629 39.2034 15.1958 38.2801 14.8089C37.3568 14.4221 36.3672 14.2229 35.3678 14.2229C34.3684 14.2229 33.3787 14.4221 32.4554 14.8089C31.5321 15.1958 30.6931 15.7629 29.9865 16.4777C29.2798 17.1925 28.7192 18.0412 28.3368 18.9752C27.9543 19.9092 27.7575 20.9102 27.7575 21.9212H27.7584ZM21.9406 43.2017V27.7975C19.9223 27.7975 17.9866 28.6085 16.5594 30.0522C15.1321 31.496 14.3303 33.454 14.3303 35.4957C14.3303 37.5374 15.1321 39.4955 16.5594 40.9392C17.9866 42.3829 19.9223 43.194 21.9406 43.194V43.2017ZM42.9781 49.0867H27.7584C27.7584 51.1284 28.5602 53.0865 29.9874 54.5302C31.4146 55.9739 33.3503 56.7849 35.3687 56.7849C37.3871 56.7849 39.3228 55.9739 40.75 54.5302C42.1772 53.0865 42.9781 51.1284 42.9781 49.0867ZM59.4375 42.2369L42.0224 59.8495C43.1648 61.0119 44.5227 61.9349 46.0183 62.5656C47.5139 63.1964 49.1178 63.5224 50.7382 63.525C52.3585 63.5276 53.9635 63.2068 55.4611 62.581C56.9587 61.9551 58.3195 61.0365 59.4656 59.8778C60.6116 58.7191 61.5204 57.343 62.1398 55.8284C62.7593 54.3138 63.0772 52.6905 63.0754 51.0514C63.0736 49.4123 62.7521 47.7896 62.1293 46.2764C61.5065 44.7632 60.5947 43.3892 59.4461 42.2331L59.4375 42.2369ZM42.0224 11.1574L59.4375 28.7738C60.5867 27.6182 61.4992 26.2447 62.1227 24.7318C62.7462 23.2189 63.0685 21.5964 63.0711 19.9573C63.0737 18.3182 62.7566 16.6947 62.1379 15.1798C61.5192 13.6649 60.6111 12.2884 59.4656 11.1291C58.3201 9.96979 56.9597 9.05051 55.4624 8.42392C53.9651 7.79732 52.3603 7.47572 50.74 7.47755C49.1196 7.47937 47.5155 7.80459 46.0196 8.43456C44.5237 9.06453 43.1653 9.98687 42.0224 11.1488V11.1574ZM11.2989 28.7632L28.7045 11.1565C26.3929 8.82974 23.2636 7.52519 20.0026 7.52887C16.7416 7.53254 13.6152 8.84414 11.3087 11.1761C9.00231 13.508 7.70416 16.67 7.69892 19.9686C7.69368 23.2673 8.98178 26.4334 11.2808 28.7729L11.2989 28.7632ZM28.7045 59.8427L11.2989 42.236C10.1497 43.3915 9.23726 44.7651 8.61375 46.278C7.99024 47.7909 7.66795 49.4134 7.66535 51.0524C7.66275 52.6915 7.97988 54.315 8.59858 55.83C9.21728 57.3449 10.1254 58.7214 11.2709 59.8807C12.4164 61.04 13.7767 61.9593 15.274 62.5859C16.7713 63.2125 18.3761 63.5341 19.9965 63.5322C21.6169 63.5304 23.221 63.2052 24.7169 62.5752C26.2128 61.9453 27.5711 61.0229 28.714 59.861L28.7045 59.8427Z" fill="#FFEA88"/>
</g>
<defs>
<clipPath id="clip0_3_94">
<rect width="319.5" height="70.1889" fill="white" transform="translate(0.25)"/>
</clipPath>
</defs>
</svg>
